<svg width="187" height="58" viewBox="0 0 187 58" fill="none" xmlns="http://www.w3.org/2000/svg">
<path d="M7.992 21.224C10.568 21.224 12.44 21.728 13.608 22.736C14.792 23.728 15.384 25.264 15.384 27.344C15.384 29.408 14.776 30.92 13.56 31.88C12.36 32.84 10.52 33.32 8.04 33.32H5.808V38H2.064V21.224H7.992ZM8.328 30.08C9.576 30.08 10.424 29.832 10.872 29.336C11.32 28.824 11.544 28.088 11.544 27.128C11.544 26.152 11.248 25.464 10.656 25.064C10.08 24.648 9.176 24.44 7.944 24.44H5.808V30.08H8.328ZM21.6462 31.04V38H18.0462V20.192H21.6462V26.528C22.7342 25.424 23.9502 24.872 25.2942 24.872C26.6542 24.872 27.7982 25.352 28.7262 26.312C29.6542 27.272 30.1182 28.552 30.1182 30.152V38H26.5182V30.944C26.5182 28.96 25.7902 27.968 24.3342 27.968C23.6142 27.968 22.9822 28.232 22.4382 28.76C21.9102 29.272 21.6462 30.032 21.6462 31.04ZM35.7063 43.088C34.4423 43.088 33.2503 42.576 32.1303 41.552L33.7623 38.888C34.3703 39.48 34.9943 39.776 35.6343 39.776C35.9703 39.776 36.2583 39.608 36.4983 39.272C36.7383 38.952 36.8583 38.608 36.8583 38.24C36.8583 37.872 35.1943 33.488 31.8663 25.088H35.7063L38.8503 33.128L41.9943 25.088H45.8343L39.8343 40.304C39.4823 41.184 38.9303 41.864 38.1783 42.344C37.4423 42.84 36.6183 43.088 35.7063 43.088ZM57.2162 33.992C57.2162 35.256 56.7442 36.272 55.8002 37.04C54.8722 37.808 53.6882 38.192 52.2482 38.192C51.2882 38.192 50.2882 38.024 49.2482 37.688C48.2082 37.336 47.2722 36.824 46.4402 36.152L48.0242 33.896C49.3682 34.936 50.8002 35.456 52.3202 35.456C52.7842 35.456 53.1522 35.368 53.4242 35.192C53.6962 35 53.8322 34.752 53.8322 34.448C53.8322 34.144 53.6402 33.864 53.2562 33.608C52.8882 33.352 52.3442 33.112 51.6242 32.888C50.9202 32.664 50.3762 32.472 49.9922 32.312C49.6242 32.152 49.2002 31.92 48.7202 31.616C47.7442 31.008 47.2562 30.112 47.2562 28.928C47.2562 27.728 47.7362 26.752 48.6962 26C49.6562 25.248 50.8962 24.872 52.4162 24.872C53.9362 24.872 55.4562 25.384 56.9762 26.408L55.6322 28.808C54.5122 28.04 53.3922 27.656 52.2722 27.656C51.1682 27.656 50.6162 27.96 50.6162 28.568C50.6162 28.904 50.7922 29.168 51.1442 29.36C51.4962 29.552 52.0802 29.776 52.8962 30.032C53.7122 30.288 54.2882 30.488 54.6242 30.632C54.9762 30.76 55.3922 30.968 55.8722 31.256C56.7682 31.8 57.2162 32.712 57.2162 33.992ZM63.6649 38H60.0649V25.088H63.6649V38ZM60.3529 23.456C59.9529 23.04 59.7529 22.536 59.7529 21.944C59.7529 21.352 59.9529 20.856 60.3529 20.456C60.7689 20.04 61.2729 19.832 61.8649 19.832C62.4569 19.832 62.9529 20.04 63.3529 20.456C63.7689 20.856 63.9769 21.352 63.9769 21.944C63.9769 22.536 63.7689 23.04 63.3529 23.456C62.9529 23.856 62.4569 24.056 61.8649 24.056C61.2729 24.056 60.7689 23.856 60.3529 23.456ZM70.0528 31.544C70.0528 32.6 70.3488 33.464 70.9408 34.136C71.5488 34.792 72.3168 35.12 73.2448 35.12C74.1888 35.12 74.9568 34.792 75.5488 34.136C76.1568 33.464 76.4608 32.6 76.4608 31.544C76.4608 30.488 76.1568 29.624 75.5488 28.952C74.9568 28.28 74.1888 27.944 73.2448 27.944C72.3168 27.944 71.5488 28.28 70.9408 28.952C70.3488 29.624 70.0528 30.488 70.0528 31.544ZM80.0848 31.544C80.0848 33.416 79.4368 34.992 78.1407 36.272C76.8448 37.552 75.2128 38.192 73.2448 38.192C71.2928 38.192 69.6688 37.552 68.3728 36.272C67.0768 34.992 66.4288 33.416 66.4288 31.544C66.4288 29.672 67.0768 28.096 68.3728 26.816C69.6688 25.52 71.2928 24.872 73.2448 24.872C75.2128 24.872 76.8448 25.52 78.1407 26.816C79.4368 28.096 80.0848 29.672 80.0848 31.544ZM86.4587 30.8V38H82.8587V25.088H86.4587V26.528C87.5467 25.424 88.7707 24.872 90.1307 24.872C91.4907 24.872 92.6267 25.352 93.5387 26.312C94.4667 27.272 94.9307 28.552 94.9307 30.152V38H91.3307V30.704C91.3307 28.72 90.6027 27.728 89.1467 27.728C88.4267 27.728 87.7947 27.992 87.2507 28.52C86.7227 29.032 86.4587 29.792 86.4587 30.8ZM101.887 38H98.2868V25.088H101.887V38ZM98.5748 23.456C98.1748 23.04 97.9748 22.536 97.9748 21.944C97.9748 21.352 98.1748 20.856 98.5748 20.456C98.9908 20.04 99.4948 19.832 100.087 19.832C100.679 19.832 101.175 20.04 101.575 20.456C101.991 20.856 102.199 21.352 102.199 21.944C102.199 22.536 101.991 23.04 101.575 23.456C101.175 23.856 100.679 24.056 100.087 24.056C99.4948 24.056 98.9908 23.856 98.5748 23.456ZM111.587 35C112.787 35 113.867 34.4 114.827 33.2L116.963 35.6C115.299 37.328 113.499 38.192 111.563 38.192C109.627 38.192 107.987 37.584 106.643 36.368C105.315 35.136 104.651 33.536 104.651 31.568C104.651 29.584 105.323 27.976 106.667 26.744C108.027 25.496 109.635 24.872 111.491 24.872C112.419 24.872 113.355 25.064 114.299 25.448C115.259 25.832 116.099 26.4 116.819 27.152L114.947 29.6C114.531 29.104 114.019 28.72 113.411 28.448C112.819 28.176 112.227 28.04 111.635 28.04C110.691 28.04 109.875 28.352 109.187 28.976C108.515 29.584 108.179 30.44 108.179 31.544C108.179 32.632 108.515 33.48 109.187 34.088C109.875 34.696 110.675 35 111.587 35Z" fill="white"/>
</svg>
